<svg width="22" height="15" viewBox="0 0 22 15" fill="none" xmlns="http://www.w3.org/2000/svg">
<path d="M16.5 0.720249C14.55 0.720249 12.45 1.05094 11 1.96033C9.55 1.05094 7.45 0.720249 5.5 0.720249C4.05 0.720249 2.51 0.902128 1.22 1.37336C0.49 1.64618 0 2.23315 0 2.9028V12.2282C0 13.303 1.22 14.0966 2.48 13.8321C3.46 13.6254 4.5 13.5344 5.5 13.5344C7.06 13.5344 8.72 13.7494 10.06 14.295C10.66 14.543 11.34 14.543 11.93 14.295C13.27 13.7411 14.93 13.5344 16.49 13.5344C17.49 13.5344 18.53 13.6254 19.51 13.8321C20.77 14.1049 21.99 13.3112 21.99 12.2282V2.9028C21.99 2.23315 21.5 1.64618 20.77 1.37336C19.49 0.902128 17.95 0.720249 16.5 0.720249ZM20 11.2444C20 11.7653 19.42 12.1455 18.8 12.0546C18.05 11.9389 17.27 11.8893 16.5 11.8893C14.8 11.8893 12.35 12.4266 11 13.1294V3.61378C12.35 2.91106 14.8 2.37369 16.5 2.37369C17.42 2.37369 18.33 2.4481 19.2 2.60518C19.66 2.68785 20 3.0268 20 3.41536V11.2444Z" fill="#733032"/>
<path d="M12.98 6.10221C12.66 6.10221 12.37 5.93687 12.27 5.67232C12.14 5.34989 12.36 4.9944 12.75 4.8952C14.29 4.48184 16.28 4.34956 18.11 4.52317C18.52 4.56451 18.82 4.87039 18.77 5.20935C18.72 5.54831 18.35 5.79632 17.94 5.75499C16.32 5.59791 14.55 5.72192 13.21 6.07741C13.13 6.08568 13.05 6.10221 12.98 6.10221Z" fill="#733032"/>
<path d="M12.98 8.30129C12.66 8.30129 12.37 8.13595 12.27 7.8714C12.14 7.54897 12.36 7.19348 12.75 7.09428C14.28 6.68092 16.28 6.54864 18.11 6.72225C18.52 6.76359 18.82 7.06948 18.77 7.40843C18.72 7.74739 18.35 7.99541 17.94 7.95407C16.32 7.79699 14.55 7.921 13.21 8.27649C13.13 8.29303 13.05 8.30129 12.98 8.30129Z" fill="#733032"/>
<path d="M12.98 10.5004C12.66 10.5004 12.37 10.335 12.27 10.0705C12.14 9.74806 12.36 9.39257 12.75 9.29336C14.28 8.88 16.28 8.74772 18.11 8.92133C18.52 8.96267 18.82 9.26856 18.77 9.60751C18.72 9.94647 18.35 10.1862 17.94 10.1532C16.32 9.99607 14.55 10.1201 13.21 10.4756C13.13 10.4921 13.05 10.5004 12.98 10.5004Z" fill="#733032"/>
</svg>
