<svg width="292" height="128" viewBox="0 0 292 128" fill="none" xmlns="http://www.w3.org/2000/svg">
<path d="M17.384 55.28C17.384 58.8214 16.744 61.744 15.464 64.048C14.2267 66.352 12.5627 68.144 10.472 69.424C8.42402 70.7467 5.97069 71.8774 3.11202 72.816L0.296021 65.392C2.17335 64.6667 3.58135 63.8347 4.52002 62.896C5.45869 61.9574 6.07735 60.8694 6.37602 59.632C6.71735 58.3947 6.88802 56.816 6.88802 54.896V17.648H17.384V55.28Z" fill="black"/>
<path d="M52.6725 17.648L51.5845 25.136H35.9685V35.76H49.6005V43.12H35.9685V54.448H52.6725V62H25.4725V17.648H52.6725ZM44.3525 0.81604L48.1285 8.36804L32.7685 13.936L30.2085 8.81604L44.3525 0.81604Z" fill="black"/>
<path d="M72.807 16.56C76.135 16.56 79.015 17.0294 81.447 17.968C83.9217 18.9067 86.1617 20.336 88.167 22.256L83.303 27.952C80.2737 25.4774 77.031 24.24 73.575 24.24C71.7404 24.24 70.2897 24.624 69.223 25.392C68.1564 26.1174 67.623 27.184 67.623 28.592C67.623 29.5734 67.8577 30.384 68.327 31.024C68.7964 31.6214 69.6284 32.1974 70.823 32.752C72.0177 33.3067 73.8097 33.968 76.199 34.736C80.7217 36.1867 84.0497 37.9787 86.183 40.112C88.3164 42.2027 89.383 45.1894 89.383 49.072C89.383 51.8454 88.679 54.2987 87.271 56.432C85.863 58.5227 83.8364 60.1654 81.191 61.36C78.5457 62.512 75.4097 63.088 71.783 63.088C68.1564 63.088 64.935 62.512 62.119 61.36C59.3457 60.208 56.9564 58.672 54.951 56.752L60.263 50.928C61.9697 52.3787 63.719 53.4667 65.511 54.192C67.3457 54.9174 69.3297 55.28 71.463 55.28C73.639 55.28 75.3457 54.8107 76.583 53.872C77.863 52.8907 78.503 51.5467 78.503 49.84C78.503 48.7307 78.2684 47.8134 77.799 47.088C77.3297 46.32 76.519 45.6374 75.367 45.04C74.215 44.4427 72.551 43.8027 70.375 43.12C65.4684 41.6267 61.9697 39.792 59.879 37.616C57.831 35.44 56.807 32.688 56.807 29.36C56.807 26.8 57.4897 24.56 58.855 22.64C60.2204 20.6774 62.119 19.184 64.551 18.16C66.983 17.0934 69.735 16.56 72.807 16.56Z" fill="black"/>
<path d="M108.745 16.56C112.073 16.56 114.953 17.0294 117.385 17.968C119.859 18.9067 122.099 20.336 124.105 22.256L119.241 27.952C116.211 25.4774 112.969 24.24 109.513 24.24C107.678 24.24 106.227 24.624 105.161 25.392C104.094 26.1174 103.561 27.184 103.561 28.592C103.561 29.5734 103.795 30.384 104.265 31.024C104.734 31.6214 105.566 32.1974 106.761 32.752C107.955 33.3067 109.747 33.968 112.137 34.736C116.659 36.1867 119.987 37.9787 122.121 40.112C124.254 42.2027 125.321 45.1894 125.321 49.072C125.321 51.8454 124.617 54.2987 123.209 56.432C121.801 58.5227 119.774 60.1654 117.129 61.36C114.483 62.512 111.347 63.088 107.721 63.088C104.094 63.088 100.873 62.512 98.0565 61.36C95.2832 60.208 92.8939 58.672 90.8885 56.752L96.2005 50.928C97.9072 52.3787 99.6565 53.4667 101.449 54.192C103.283 54.9174 105.267 55.28 107.401 55.28C109.577 55.28 111.283 54.8107 112.521 53.872C113.801 52.8907 114.441 51.5467 114.441 49.84C114.441 48.7307 114.206 47.8134 113.737 47.088C113.267 46.32 112.457 45.6374 111.305 45.04C110.153 44.4427 108.489 43.8027 106.313 43.12C101.406 41.6267 97.9072 39.792 95.8165 37.616C93.7685 35.44 92.7445 32.688 92.7445 29.36C92.7445 26.8 93.4272 24.56 94.7925 22.64C96.1579 20.6774 98.0565 19.184 100.489 18.16C102.921 17.0934 105.673 16.56 108.745 16.56Z" fill="black"/>
<path d="M141.594 17.648V62H131.098V17.648H141.594Z" fill="black"/>
<path d="M167.96 16.56C170.733 16.56 173.186 16.9654 175.32 17.776C177.496 18.5867 179.544 19.8027 181.464 21.424L176.472 27.376C175.149 26.352 173.848 25.584 172.568 25.072C171.288 24.56 169.922 24.304 168.472 24.304C165.485 24.304 163.117 25.5627 161.368 28.08C159.661 30.5974 158.808 34.48 158.808 39.728C158.808 44.8907 159.661 48.7307 161.368 51.248C163.117 53.7227 165.528 54.96 168.6 54.96C170.221 54.96 171.693 54.6614 173.016 54.064C174.338 53.424 175.768 52.528 177.304 51.376L181.976 57.392C180.312 59.056 178.285 60.4214 175.896 61.488C173.549 62.5547 170.946 63.088 168.088 63.088C163.992 63.088 160.429 62.192 157.4 60.4C154.37 58.608 152.002 55.9627 150.296 52.464C148.632 48.9227 147.8 44.6774 147.8 39.728C147.8 34.9067 148.653 30.7467 150.36 27.248C152.109 23.7494 154.498 21.104 157.528 19.312C160.6 17.4774 164.077 16.56 167.96 16.56Z" fill="black"/>
<path d="M210.02 62L207.716 52.464H194.788L192.548 62H181.668L195.044 17.648H207.78L221.156 62H210.02ZM196.58 44.848H205.924L201.252 25.264L196.58 44.848Z" fill="black"/>
<path d="M19.432 80.56C22.76 80.56 25.64 81.0294 28.072 81.968C30.5467 82.9067 32.7867 84.336 34.792 86.256L29.928 91.952C26.8987 89.4774 23.656 88.24 20.2 88.24C18.3654 88.24 16.9147 88.624 15.848 89.392C14.7814 90.1174 14.248 91.184 14.248 92.592C14.248 93.5734 14.4827 94.384 14.952 95.024C15.4214 95.6214 16.2534 96.1974 17.448 96.752C18.6427 97.3067 20.4347 97.968 22.824 98.736C27.3467 100.187 30.6747 101.979 32.808 104.112C34.9414 106.203 36.008 109.189 36.008 113.072C36.008 115.845 35.304 118.299 33.896 120.432C32.488 122.523 30.4614 124.165 27.816 125.36C25.1707 126.512 22.0347 127.088 18.408 127.088C14.7814 127.088 11.56 126.512 8.74402 125.36C5.97069 124.208 3.58135 122.672 1.57602 120.752L6.88802 114.928C8.59469 116.379 10.344 117.467 12.136 118.192C13.9707 118.917 15.9547 119.28 18.088 119.28C20.264 119.28 21.9707 118.811 23.208 117.872C24.488 116.891 25.128 115.547 25.128 113.84C25.128 112.731 24.8934 111.813 24.424 111.088C23.9547 110.32 23.144 109.637 21.992 109.04C20.84 108.443 19.176 107.803 17 107.12C12.0934 105.627 8.59469 103.792 6.50402 101.616C4.45602 99.44 3.43202 96.688 3.43202 93.36C3.43202 90.8 4.11469 88.56 5.48002 86.64C6.84535 84.6774 8.74402 83.184 11.176 82.16C13.608 81.0934 16.36 80.56 19.432 80.56Z" fill="black"/>
<path d="M64.8325 126L62.5285 116.464H49.6005L47.3605 126H36.4805L49.8565 81.648H62.5925L75.9685 126H64.8325ZM51.3925 108.848H60.7365L56.0645 89.264L51.3925 108.848Z" fill="black"/>
<path d="M113.399 126H100.023L87.2225 91.632C87.6492 95.0027 87.9692 97.9894 88.1825 100.592C88.4385 103.152 88.5665 106.203 88.5665 109.744V126H79.2225V81.648H92.2785L105.399 116.08C104.46 110.235 103.991 104.731 103.991 99.568V81.648H113.399V126Z" fill="black"/>
<path d="M151.996 81.648L150.972 89.712H140.028V126H129.532V89.712H118.076V81.648H151.996Z" fill="black"/>
<path d="M166.719 81.648V126H156.223V81.648H166.719Z" fill="black"/>
<path d="M198.333 126L196.029 116.464H183.101L180.861 126H169.981L183.357 81.648H196.093L209.469 126H198.333ZM184.893 108.848H194.237L189.565 89.264L184.893 108.848Z" fill="black"/>
<path d="M231.298 80.56C237.015 80.56 241.943 82.3734 246.082 86L240.77 91.568C239.191 90.3734 237.719 89.52 236.354 89.008C235.031 88.4534 233.495 88.176 231.746 88.176C228.46 88.176 225.836 89.4774 223.874 92.08C221.911 94.64 220.93 98.544 220.93 103.792C220.93 109.467 221.676 113.499 223.17 115.888C224.663 118.235 226.988 119.408 230.146 119.408C232.364 119.408 234.37 118.917 236.162 117.936V107.888H230.402L229.378 100.464H246.338V122.416C244.034 123.909 241.495 125.061 238.722 125.872C235.948 126.683 233.175 127.088 230.402 127.088C223.66 127.088 218.583 125.125 215.17 121.2C211.756 117.232 210.05 111.429 210.05 103.792C210.05 98.928 210.967 94.7467 212.802 91.248C214.679 87.7494 217.218 85.104 220.418 83.312C223.66 81.4774 227.287 80.56 231.298 80.56Z" fill="black"/>
<path d="M271.268 80.56C277.582 80.56 282.489 82.5867 285.988 86.64C289.529 90.6934 291.3 96.4107 291.3 103.792C291.3 108.613 290.489 112.773 288.868 116.272C287.289 119.771 284.985 122.459 281.956 124.336C278.969 126.171 275.406 127.088 271.268 127.088C267.129 127.088 263.566 126.171 260.58 124.336C257.593 122.501 255.289 119.856 253.668 116.4C252.089 112.901 251.3 108.699 251.3 103.792C251.3 99.0134 252.089 94.8747 253.668 91.376C255.289 87.8774 257.593 85.2107 260.58 83.376C263.566 81.4987 267.129 80.56 271.268 80.56ZM271.268 88.24C268.238 88.24 265.977 89.4774 264.484 91.952C263.033 94.384 262.308 98.3307 262.308 103.792C262.308 109.253 263.054 113.221 264.548 115.696C266.041 118.171 268.281 119.408 271.268 119.408C274.34 119.408 276.601 118.192 278.052 115.76C279.545 113.285 280.292 109.296 280.292 103.792C280.292 98.288 279.545 94.32 278.052 91.888C276.558 89.456 274.297 88.24 271.268 88.24Z" fill="black"/>
</svg>
