<svg width="225" height="85" viewBox="0 0 225 85" fill="none" xmlns="http://www.w3.org/2000/svg">
<path d="M11.2734 30.5859L18.0703 1.875H21.8672L22.7344 6.65625L15.4922 36H11.4141L11.2734 30.5859ZM7.78125 1.875L13.4062 30.5859L12.9375 36H8.39062L0.820312 1.875H7.78125ZM28.7109 30.4688L34.2656 1.875H41.2266L33.6797 36H29.1328L28.7109 30.4688ZM24 1.875L30.8438 30.7031L30.6562 36H26.5781L19.2891 6.63281L20.2266 1.875H24Z" fill="black"/>
<path d="M55.5469 36.4688C53.5781 36.4688 51.8125 36.1562 50.25 35.5312C48.6875 34.8906 47.3594 34.0078 46.2656 32.8828C45.1875 31.7578 44.3594 30.4531 43.7812 28.9688C43.2031 27.4688 42.9141 25.875 42.9141 24.1875V23.25C42.9141 21.3281 43.1875 19.5703 43.7344 17.9766C44.2812 16.3828 45.0625 15 46.0781 13.8281C47.1094 12.6562 48.3594 11.7578 49.8281 11.1328C51.2969 10.4922 52.9531 10.1719 54.7969 10.1719C56.5938 10.1719 58.1875 10.4688 59.5781 11.0625C60.9688 11.6562 62.1328 12.5 63.0703 13.5938C64.0234 14.6875 64.7422 16 65.2266 17.5312C65.7109 19.0469 65.9531 20.7344 65.9531 22.5938V25.4062H45.7969V20.9062H59.3203V20.3906C59.3203 19.4531 59.1484 18.6172 58.8047 17.8828C58.4766 17.1328 57.9766 16.5391 57.3047 16.1016C56.6328 15.6641 55.7734 15.4453 54.7266 15.4453C53.8359 15.4453 53.0703 15.6406 52.4297 16.0312C51.7891 16.4219 51.2656 16.9688 50.8594 17.6719C50.4688 18.375 50.1719 19.2031 49.9688 20.1562C49.7812 21.0938 49.6875 22.125 49.6875 23.25V24.1875C49.6875 25.2031 49.8281 26.1406 50.1094 27C50.4062 27.8594 50.8203 28.6016 51.3516 29.2266C51.8984 29.8516 52.5547 30.3359 53.3203 30.6797C54.1016 31.0234 54.9844 31.1953 55.9688 31.1953C57.1875 31.1953 58.3203 30.9609 59.3672 30.4922C60.4297 30.0078 61.3438 29.2812 62.1094 28.3125L65.3906 31.875C64.8594 32.6406 64.1328 33.375 63.2109 34.0781C62.3047 34.7812 61.2109 35.3594 59.9297 35.8125C58.6484 36.25 57.1875 36.4688 55.5469 36.4688Z" fill="black"/>
<path d="M69.7969 0H76.5469V30.1875L75.8672 36H69.7969V0ZM92.6016 23.0625V23.5547C92.6016 25.4453 92.3984 27.1797 91.9922 28.7578C91.6016 30.3359 90.9922 31.7031 90.1641 32.8594C89.3359 34 88.3047 34.8906 87.0703 35.5312C85.8516 36.1562 84.4141 36.4688 82.7578 36.4688C81.2109 36.4688 79.8672 36.1562 78.7266 35.5312C77.6016 34.9062 76.6562 34.0234 75.8906 32.8828C75.125 31.7422 74.5078 30.4062 74.0391 28.875C73.5703 27.3438 73.2188 25.6719 72.9844 23.8594V22.7812C73.2188 20.9688 73.5703 19.2969 74.0391 17.7656C74.5078 16.2344 75.125 14.8984 75.8906 13.7578C76.6562 12.6172 77.6016 11.7344 78.7266 11.1094C79.8516 10.4844 81.1797 10.1719 82.7109 10.1719C84.3828 10.1719 85.8359 10.4922 87.0703 11.1328C88.3203 11.7578 89.3516 12.6484 90.1641 13.8047C90.9922 14.9453 91.6016 16.3047 91.9922 17.8828C92.3984 19.4453 92.6016 21.1719 92.6016 23.0625ZM85.8516 23.5547V23.0625C85.8516 22.0312 85.7734 21.0625 85.6172 20.1562C85.4766 19.2344 85.2266 18.4297 84.8672 17.7422C84.5078 17.0391 84.0156 16.4844 83.3906 16.0781C82.7812 15.6719 81.9922 15.4688 81.0234 15.4688C80.1016 15.4688 79.3203 15.625 78.6797 15.9375C78.0391 16.25 77.5078 16.6875 77.0859 17.25C76.6797 17.8125 76.375 18.4844 76.1719 19.2656C75.9688 20.0312 75.8438 20.875 75.7969 21.7969V24.8672C75.8438 26.1016 76.0469 27.1953 76.4062 28.1484C76.7812 29.0859 77.3438 29.8281 78.0938 30.375C78.8594 30.9062 79.8516 31.1719 81.0703 31.1719C82.0234 31.1719 82.8125 30.9844 83.4375 30.6094C84.0625 30.2344 84.5469 29.7031 84.8906 29.0156C85.25 28.3281 85.5 27.5234 85.6406 26.6016C85.7812 25.6641 85.8516 24.6484 85.8516 23.5547Z" fill="black"/>
<path d="M108.469 36.4688C106.5 36.4688 104.734 36.1562 103.172 35.5312C101.609 34.8906 100.281 34.0078 99.1875 32.8828C98.1094 31.7578 97.2812 30.4531 96.7031 28.9688C96.125 27.4688 95.8359 25.875 95.8359 24.1875V23.25C95.8359 21.3281 96.1094 19.5703 96.6562 17.9766C97.2031 16.3828 97.9844 15 99 13.8281C100.031 12.6562 101.281 11.7578 102.75 11.1328C104.219 10.4922 105.875 10.1719 107.719 10.1719C109.516 10.1719 111.109 10.4688 112.5 11.0625C113.891 11.6562 115.055 12.5 115.992 13.5938C116.945 14.6875 117.664 16 118.148 17.5312C118.633 19.0469 118.875 20.7344 118.875 22.5938V25.4062H98.7188V20.9062H112.242V20.3906C112.242 19.4531 112.07 18.6172 111.727 17.8828C111.398 17.1328 110.898 16.5391 110.227 16.1016C109.555 15.6641 108.695 15.4453 107.648 15.4453C106.758 15.4453 105.992 15.6406 105.352 16.0312C104.711 16.4219 104.188 16.9688 103.781 17.6719C103.391 18.375 103.094 19.2031 102.891 20.1562C102.703 21.0938 102.609 22.125 102.609 23.25V24.1875C102.609 25.2031 102.75 26.1406 103.031 27C103.328 27.8594 103.742 28.6016 104.273 29.2266C104.82 29.8516 105.477 30.3359 106.242 30.6797C107.023 31.0234 107.906 31.1953 108.891 31.1953C110.109 31.1953 111.242 30.9609 112.289 30.4922C113.352 30.0078 114.266 29.2812 115.031 28.3125L118.312 31.875C117.781 32.6406 117.055 33.375 116.133 34.0781C115.227 34.7812 114.133 35.3594 112.852 35.8125C111.57 36.25 110.109 36.4688 108.469 36.4688Z" fill="black"/>
<path d="M129.469 16.1719V36H122.719V10.6406H129.07L129.469 16.1719ZM137.109 10.4766L136.992 16.7344C136.664 16.6875 136.266 16.6484 135.797 16.6172C135.344 16.5703 134.93 16.5469 134.555 16.5469C133.602 16.5469 132.773 16.6719 132.07 16.9219C131.383 17.1562 130.805 17.5078 130.336 17.9766C129.883 18.4453 129.539 19.0156 129.305 19.6875C129.086 20.3594 128.961 21.125 128.93 21.9844L127.57 21.5625C127.57 19.9219 127.734 18.4141 128.062 17.0391C128.391 15.6484 128.867 14.4375 129.492 13.4062C130.133 12.375 130.914 11.5781 131.836 11.0156C132.758 10.4531 133.812 10.1719 135 10.1719C135.375 10.1719 135.758 10.2031 136.148 10.2656C136.539 10.3125 136.859 10.3828 137.109 10.4766Z" fill="black"/>
<path d="M10.0781 49.875V84H3.04688V49.875H10.0781ZM23.6719 64.4531V69.9375H8.15625V64.4531H23.6719ZM25.3125 49.875V55.3828H8.15625V49.875H25.3125Z" fill="black"/>
<path d="M40.125 84.4688C38.1562 84.4688 36.3906 84.1562 34.8281 83.5312C33.2656 82.8906 31.9375 82.0078 30.8438 80.8828C29.7656 79.7578 28.9375 78.4531 28.3594 76.9688C27.7812 75.4688 27.4922 73.875 27.4922 72.1875V71.25C27.4922 69.3281 27.7656 67.5703 28.3125 65.9766C28.8594 64.3828 29.6406 63 30.6562 61.8281C31.6875 60.6562 32.9375 59.7578 34.4062 59.1328C35.875 58.4922 37.5312 58.1719 39.375 58.1719C41.1719 58.1719 42.7656 58.4688 44.1562 59.0625C45.5469 59.6562 46.7109 60.5 47.6484 61.5938C48.6016 62.6875 49.3203 64 49.8047 65.5312C50.2891 67.0469 50.5312 68.7344 50.5312 70.5938V73.4062H30.375V68.9062H43.8984V68.3906C43.8984 67.4531 43.7266 66.6172 43.3828 65.8828C43.0547 65.1328 42.5547 64.5391 41.8828 64.1016C41.2109 63.6641 40.3516 63.4453 39.3047 63.4453C38.4141 63.4453 37.6484 63.6406 37.0078 64.0312C36.3672 64.4219 35.8438 64.9688 35.4375 65.6719C35.0469 66.375 34.75 67.2031 34.5469 68.1562C34.3594 69.0938 34.2656 70.125 34.2656 71.25V72.1875C34.2656 73.2031 34.4062 74.1406 34.6875 75C34.9844 75.8594 35.3984 76.6016 35.9297 77.2266C36.4766 77.8516 37.1328 78.3359 37.8984 78.6797C38.6797 79.0234 39.5625 79.1953 40.5469 79.1953C41.7656 79.1953 42.8984 78.9609 43.9453 78.4922C45.0078 78.0078 45.9219 77.2812 46.6875 76.3125L49.9688 79.875C49.4375 80.6406 48.7109 81.375 47.7891 82.0781C46.8828 82.7812 45.7891 83.3594 44.5078 83.8125C43.2266 84.25 41.7656 84.4688 40.125 84.4688Z" fill="black"/>
<path d="M61.125 64.1719V84H54.375V58.6406H60.7266L61.125 64.1719ZM68.7656 58.4766L68.6484 64.7344C68.3203 64.6875 67.9219 64.6484 67.4531 64.6172C67 64.5703 66.5859 64.5469 66.2109 64.5469C65.2578 64.5469 64.4297 64.6719 63.7266 64.9219C63.0391 65.1562 62.4609 65.5078 61.9922 65.9766C61.5391 66.4453 61.1953 67.0156 60.9609 67.6875C60.7422 68.3594 60.6172 69.125 60.5859 69.9844L59.2266 69.5625C59.2266 67.9219 59.3906 66.4141 59.7188 65.0391C60.0469 63.6484 60.5234 62.4375 61.1484 61.4062C61.7891 60.375 62.5703 59.5781 63.4922 59.0156C64.4141 58.4531 65.4688 58.1719 66.6562 58.1719C67.0312 58.1719 67.4141 58.2031 67.8047 58.2656C68.1953 58.3125 68.5156 58.3828 68.7656 58.4766Z" fill="black"/>
<path d="M78.5625 64.0547V84H71.8125V58.6406H78.1406L78.5625 64.0547ZM77.5781 70.4297H75.75C75.75 68.5547 75.9922 66.8672 76.4766 65.3672C76.9609 63.8516 77.6406 62.5625 78.5156 61.5C79.3906 60.4219 80.4297 59.6016 81.6328 59.0391C82.8516 58.4609 84.2109 58.1719 85.7109 58.1719C86.8984 58.1719 87.9844 58.3438 88.9688 58.6875C89.9531 59.0312 90.7969 59.5781 91.5 60.3281C92.2188 61.0781 92.7656 62.0703 93.1406 63.3047C93.5312 64.5391 93.7266 66.0469 93.7266 67.8281V84H86.9297V67.8047C86.9297 66.6797 86.7734 65.8047 86.4609 65.1797C86.1484 64.5547 85.6875 64.1172 85.0781 63.8672C84.4844 63.6016 83.75 63.4688 82.875 63.4688C81.9688 63.4688 81.1797 63.6484 80.5078 64.0078C79.8516 64.3672 79.3047 64.8672 78.8672 65.5078C78.4453 66.1328 78.125 66.8672 77.9062 67.7109C77.6875 68.5547 77.5781 69.4609 77.5781 70.4297Z" fill="black"/>
<path d="M112.547 78.2812V66.9844C112.547 66.1719 112.414 65.4766 112.148 64.8984C111.883 64.3047 111.469 63.8438 110.906 63.5156C110.359 63.1875 109.648 63.0234 108.773 63.0234C108.023 63.0234 107.375 63.1562 106.828 63.4219C106.281 63.6719 105.859 64.0391 105.562 64.5234C105.266 64.9922 105.117 65.5469 105.117 66.1875H98.3672C98.3672 65.1094 98.6172 64.0859 99.1172 63.1172C99.6172 62.1484 100.344 61.2969 101.297 60.5625C102.25 59.8125 103.383 59.2266 104.695 58.8047C106.023 58.3828 107.508 58.1719 109.148 58.1719C111.117 58.1719 112.867 58.5 114.398 59.1562C115.93 59.8125 117.133 60.7969 118.008 62.1094C118.898 63.4219 119.344 65.0625 119.344 67.0312V77.8828C119.344 79.2734 119.43 80.4141 119.602 81.3047C119.773 82.1797 120.023 82.9453 120.352 83.6016V84H113.531C113.203 83.3125 112.953 82.4531 112.781 81.4219C112.625 80.375 112.547 79.3281 112.547 78.2812ZM113.438 68.5547L113.484 72.375H109.711C108.82 72.375 108.047 72.4766 107.391 72.6797C106.734 72.8828 106.195 73.1719 105.773 73.5469C105.352 73.9062 105.039 74.3281 104.836 74.8125C104.648 75.2969 104.555 75.8281 104.555 76.4062C104.555 76.9844 104.688 77.5078 104.953 77.9766C105.219 78.4297 105.602 78.7891 106.102 79.0547C106.602 79.3047 107.188 79.4297 107.859 79.4297C108.875 79.4297 109.758 79.2266 110.508 78.8203C111.258 78.4141 111.836 77.9141 112.242 77.3203C112.664 76.7266 112.883 76.1641 112.898 75.6328L114.68 78.4922C114.43 79.1328 114.086 79.7969 113.648 80.4844C113.227 81.1719 112.688 81.8203 112.031 82.4297C111.375 83.0234 110.586 83.5156 109.664 83.9062C108.742 84.2812 107.648 84.4688 106.383 84.4688C104.773 84.4688 103.312 84.1484 102 83.5078C100.703 82.8516 99.6719 81.9531 98.9062 80.8125C98.1562 79.6562 97.7812 78.3438 97.7812 76.875C97.7812 75.5469 98.0312 74.3672 98.5312 73.3359C99.0312 72.3047 99.7656 71.4375 100.734 70.7344C101.719 70.0156 102.945 69.4766 104.414 69.1172C105.883 68.7422 107.586 68.5547 109.523 68.5547H113.438Z" fill="black"/>
<path d="M131.156 64.0547V84H124.406V58.6406H130.734L131.156 64.0547ZM130.172 70.4297H128.344C128.344 68.5547 128.586 66.8672 129.07 65.3672C129.555 63.8516 130.234 62.5625 131.109 61.5C131.984 60.4219 133.023 59.6016 134.227 59.0391C135.445 58.4609 136.805 58.1719 138.305 58.1719C139.492 58.1719 140.578 58.3438 141.562 58.6875C142.547 59.0312 143.391 59.5781 144.094 60.3281C144.812 61.0781 145.359 62.0703 145.734 63.3047C146.125 64.5391 146.32 66.0469 146.32 67.8281V84H139.523V67.8047C139.523 66.6797 139.367 65.8047 139.055 65.1797C138.742 64.5547 138.281 64.1172 137.672 63.8672C137.078 63.6016 136.344 63.4688 135.469 63.4688C134.562 63.4688 133.773 63.6484 133.102 64.0078C132.445 64.3672 131.898 64.8672 131.461 65.5078C131.039 66.1328 130.719 66.8672 130.5 67.7109C130.281 68.5547 130.172 69.4609 130.172 70.4297Z" fill="black"/>
<path d="M166.43 78.4688V48H173.227V84H167.109L166.43 78.4688ZM150.398 71.625V71.1328C150.398 69.1953 150.617 67.4375 151.055 65.8594C151.492 64.2656 152.133 62.8984 152.977 61.7578C153.82 60.6172 154.859 59.7344 156.094 59.1094C157.328 58.4844 158.734 58.1719 160.312 58.1719C161.797 58.1719 163.094 58.4844 164.203 59.1094C165.328 59.7344 166.281 60.625 167.062 61.7812C167.859 62.9219 168.5 64.2734 168.984 65.8359C169.469 67.3828 169.82 69.0781 170.039 70.9219V72C169.82 73.7656 169.469 75.4062 168.984 76.9219C168.5 78.4375 167.859 79.7656 167.062 80.9062C166.281 82.0312 165.328 82.9062 164.203 83.5312C163.078 84.1562 161.766 84.4688 160.266 84.4688C158.688 84.4688 157.281 84.1484 156.047 83.5078C154.828 82.8672 153.797 81.9688 152.953 80.8125C152.125 79.6562 151.492 78.2969 151.055 76.7344C150.617 75.1719 150.398 73.4688 150.398 71.625ZM157.148 71.1328V71.625C157.148 72.6719 157.227 73.6484 157.383 74.5547C157.555 75.4609 157.828 76.2656 158.203 76.9688C158.594 77.6562 159.094 78.1953 159.703 78.5859C160.328 78.9609 161.086 79.1484 161.977 79.1484C163.133 79.1484 164.086 78.8906 164.836 78.375C165.586 77.8438 166.156 77.1172 166.547 76.1953C166.953 75.2734 167.188 74.2109 167.25 73.0078V69.9375C167.203 68.9531 167.062 68.0703 166.828 67.2891C166.609 66.4922 166.281 65.8125 165.844 65.25C165.422 64.6875 164.891 64.25 164.25 63.9375C163.625 63.625 162.883 63.4688 162.023 63.4688C161.148 63.4688 160.398 63.6719 159.773 64.0781C159.148 64.4688 158.641 65.0078 158.25 65.6953C157.875 66.3828 157.594 67.1953 157.406 68.1328C157.234 69.0547 157.148 70.0547 157.148 71.1328Z" fill="black"/>
<path d="M190.172 84.4688C188.203 84.4688 186.438 84.1562 184.875 83.5312C183.312 82.8906 181.984 82.0078 180.891 80.8828C179.812 79.7578 178.984 78.4531 178.406 76.9688C177.828 75.4688 177.539 73.875 177.539 72.1875V71.25C177.539 69.3281 177.812 67.5703 178.359 65.9766C178.906 64.3828 179.688 63 180.703 61.8281C181.734 60.6562 182.984 59.7578 184.453 59.1328C185.922 58.4922 187.578 58.1719 189.422 58.1719C191.219 58.1719 192.812 58.4688 194.203 59.0625C195.594 59.6562 196.758 60.5 197.695 61.5938C198.648 62.6875 199.367 64 199.852 65.5312C200.336 67.0469 200.578 68.7344 200.578 70.5938V73.4062H180.422V68.9062H193.945V68.3906C193.945 67.4531 193.773 66.6172 193.43 65.8828C193.102 65.1328 192.602 64.5391 191.93 64.1016C191.258 63.6641 190.398 63.4453 189.352 63.4453C188.461 63.4453 187.695 63.6406 187.055 64.0312C186.414 64.4219 185.891 64.9688 185.484 65.6719C185.094 66.375 184.797 67.2031 184.594 68.1562C184.406 69.0938 184.312 70.125 184.312 71.25V72.1875C184.312 73.2031 184.453 74.1406 184.734 75C185.031 75.8594 185.445 76.6016 185.977 77.2266C186.523 77.8516 187.18 78.3359 187.945 78.6797C188.727 79.0234 189.609 79.1953 190.594 79.1953C191.812 79.1953 192.945 78.9609 193.992 78.4922C195.055 78.0078 195.969 77.2812 196.734 76.3125L200.016 79.875C199.484 80.6406 198.758 81.375 197.836 82.0781C196.93 82.7812 195.836 83.3594 194.555 83.8125C193.273 84.25 191.812 84.4688 190.172 84.4688Z" fill="black"/>
<path d="M218.133 76.9922C218.133 76.5078 217.992 76.0703 217.711 75.6797C217.43 75.2891 216.906 74.9297 216.141 74.6016C215.391 74.2578 214.305 73.9453 212.883 73.6641C211.602 73.3828 210.406 73.0312 209.297 72.6094C208.203 72.1719 207.25 71.6484 206.438 71.0391C205.641 70.4297 205.016 69.7109 204.562 68.8828C204.109 68.0391 203.883 67.0781 203.883 66C203.883 64.9375 204.109 63.9375 204.562 63C205.031 62.0625 205.695 61.2344 206.555 60.5156C207.43 59.7812 208.492 59.2109 209.742 58.8047C211.008 58.3828 212.43 58.1719 214.008 58.1719C216.211 58.1719 218.102 58.5234 219.68 59.2266C221.273 59.9297 222.492 60.8984 223.336 62.1328C224.195 63.3516 224.625 64.7422 224.625 66.3047H217.875C217.875 65.6484 217.734 65.0625 217.453 64.5469C217.188 64.0156 216.766 63.6016 216.188 63.3047C215.625 62.9922 214.891 62.8359 213.984 62.8359C213.234 62.8359 212.586 62.9688 212.039 63.2344C211.492 63.4844 211.07 63.8281 210.773 64.2656C210.492 64.6875 210.352 65.1562 210.352 65.6719C210.352 66.0625 210.43 66.4141 210.586 66.7266C210.758 67.0234 211.031 67.2969 211.406 67.5469C211.781 67.7969 212.266 68.0312 212.859 68.25C213.469 68.4531 214.219 68.6406 215.109 68.8125C216.938 69.1875 218.57 69.6797 220.008 70.2891C221.445 70.8828 222.586 71.6953 223.43 72.7266C224.273 73.7422 224.695 75.0781 224.695 76.7344C224.695 77.8594 224.445 78.8906 223.945 79.8281C223.445 80.7656 222.727 81.5859 221.789 82.2891C220.852 82.9766 219.727 83.5156 218.414 83.9062C217.117 84.2812 215.656 84.4688 214.031 84.4688C211.672 84.4688 209.672 84.0469 208.031 83.2031C206.406 82.3594 205.172 81.2891 204.328 79.9922C203.5 78.6797 203.086 77.3359 203.086 75.9609H209.484C209.516 76.8828 209.75 77.625 210.188 78.1875C210.641 78.75 211.211 79.1562 211.898 79.4062C212.602 79.6562 213.359 79.7812 214.172 79.7812C215.047 79.7812 215.773 79.6641 216.352 79.4297C216.93 79.1797 217.367 78.8516 217.664 78.4453C217.977 78.0234 218.133 77.5391 218.133 76.9922Z" fill="black"/>
</svg>
